<svg xmlns="http://www.w3.org/2000/svg" viewBox="0 0 379.27 358.96"><defs><style>.cls-1{fill:#84c7d0;}.cls-2{fill:#fff;}.cls-2,.cls-6{stroke:#1a1a1a;}.cls-2,.cls-3,.cls-5,.cls-6{stroke-miterlimit:10;}.cls-3{fill:#14b498;stroke:#000;}.cls-4{fill:#7cc0f3;}.cls-5,.cls-6{fill:none;}.cls-5{stroke:#8b8b7e;stroke-width:3px;}</style></defs><g id="Dental_Arts" data-name="Dental Arts"><path class="cls-1" d="M397.69,626.36l2.6,2.33-17.38,19.37-2.6-2.33Z" transform="translate(-311.05 -333.3)"/><path class="cls-1" d="M392.48,656.47,407,633.9l0,0,.95,23.7L407,656.55l21.8-8.65,0,0L414.23,670.5l-2.93-1.9,10.26-15.91-.75,1.62-15.76,6.37-.06,0-.85-17.08,1.36-1-10.18,15.8Z" transform="translate(-311.05 -333.3)"/><path class="cls-1" d="M442.43,654.56a11.34,11.34,0,0,1,4.15,2.71,7.14,7.14,0,0,1,1.85,3.72,8.19,8.19,0,0,1-.62,4.45,9.85,9.85,0,0,1-1.58,2.64,7.58,7.58,0,0,1-2.4,1.95,7.45,7.45,0,0,1-3.21.79,10,10,0,0,1-4-.83L433,668.54l-3.58,8.84-3.24-1.31L436,652Zm-4.57,12.25a6.08,6.08,0,0,0,2.55.51,4.18,4.18,0,0,0,1.94-.59,5.4,5.4,0,0,0,1.38-1.19,5.56,5.56,0,0,0,.82-1.34,6.2,6.2,0,0,0,.38-1.62,4.38,4.38,0,0,0-.2-1.75,4.66,4.66,0,0,0-1-1.65,5.55,5.55,0,0,0-2-1.3L438,656.37l-3.65,9Z" transform="translate(-311.05 -333.3)"/><path class="cls-1" d="M457.14,659.85l3.39.82-5.27,22.05,12.84,3.08-.77,3.25-16.25-3.88Z" transform="translate(-311.05 -333.3)"/><path class="cls-1" d="M475.52,690.51l13.37-26.17.22,0,9.28,27.9-4-.31-6.82-22.22,2.6-1.42L479,690.77Zm7.39-9.33,9.66.74.92,3.1-11.81-.9Z" transform="translate(-311.05 -333.3)"/><path class="cls-1" d="M531.23,690.67l-22.09-18.28,1,.15,2,19.23-3.48.35L506,665.44l.18,0L528,683.79l-.81-.1-2-19.4,3.48-.36,2.71,26.72Z" transform="translate(-311.05 -333.3)"/><path class="cls-1" d="M535,662.51l16.68-4.63.9,3.23L545.86,663l6.06,21.85-3.36.93-6.07-21.85-6.59,1.83Z" transform="translate(-311.05 -333.3)"/><path class="cls-1" d="M570.07,650.21l3-1.69,11,19.82,11.54-6.42,1.63,2.92L582.72,673Z" transform="translate(-311.05 -333.3)"/><path class="cls-1" d="M604.46,660.28,596.37,632l.17-.13L622.36,646l-3.11,2.5-20.16-11.58.93-2.82,7.14,24.07Zm-1-11.86,7.56-6,2.79,1.64-9.25,7.4Z" transform="translate(-311.05 -333.3)"/><path class="cls-1" d="M614.53,616.33a10.53,10.53,0,0,1,5.29-3.56,5.64,5.64,0,0,1,5.2,1.59,6.62,6.62,0,0,1,2.08,3.09,6.47,6.47,0,0,1,0,3.52,9.94,9.94,0,0,1-1.85,3.63l-1.71-.84a13.34,13.34,0,0,1,3.82-2.92,8.06,8.06,0,0,1,4-.88,5.75,5.75,0,0,1,3.56,1.51,7.16,7.16,0,0,1,2,2.74,6.11,6.11,0,0,1,.42,2.95,8.72,8.72,0,0,1-.87,2.94,12.26,12.26,0,0,1-1.82,2.69l-5.13,5.8-19.5-17.24Zm9,7a3.85,3.85,0,0,0,1.18-3.14,4.41,4.41,0,0,0-1.52-2.63,3.51,3.51,0,0,0-3.1-1.06,5.61,5.61,0,0,0-2.94,1.92L614.92,621l6,5.32Zm8.64,7.45a7.81,7.81,0,0,0,1.44-2.29,4,4,0,0,0,.24-2.31,3.59,3.59,0,0,0-1.22-2,3.34,3.34,0,0,0-2.32-1,4.61,4.61,0,0,0-2.3.73,9.2,9.2,0,0,0-2,1.69l-2.55,2.89,6,5.32Z" transform="translate(-311.05 -333.3)"/><path class="cls-1" d="M341.34,466.63l-30.29-16.94,4.61-8.25a22,22,0,0,1,5.65-6.9,15.74,15.74,0,0,1,6.49-3.06,17,17,0,0,1,6.59,0,20.51,20.51,0,0,1,6,2.19,17.41,17.41,0,0,1,5.49,4.64,15.86,15.86,0,0,1,2.82,5.87,16.73,16.73,0,0,1,.29,6.43,18.35,18.35,0,0,1-2.18,6.29Zm-1.63-6.24,2.74-4.9a15.47,15.47,0,0,0,1.81-5,12.45,12.45,0,0,0-.11-4.91,11.31,11.31,0,0,0-2.13-4.4,15.27,15.27,0,0,0-9.66-5.35,11.65,11.65,0,0,0-4.95.53,12.61,12.61,0,0,0-4.17,2.4,13.89,13.89,0,0,0-3.07,3.78l-3,5.28Z" transform="translate(-311.05 -333.3)"/><path class="cls-1" d="M339.73,405.88l15.58-16.32,3.23,3.08-12.36,13,7.64,7.29,11-11.57,3.27,3.12-11,11.56,7.75,7.39L377.65,410l3.23,3.08-16,16.81Z" transform="translate(-311.05 -333.3)"/><path class="cls-1" d="M419,388,381.83,379l1.31-.42,13.7,21.83-3.95,2.46L374,372.55l.2-.13,36.93,9.19-1,.36-13.82-22,4-2.46,18.92,30.4Z" transform="translate(-311.05 -333.3)"/><path class="cls-1" d="M421.47,348l21.9-7.29,1.41,4.24L436,347.88l9.55,28.69L441.08,378l-9.55-28.69-8.65,2.88Z" transform="translate(-311.05 -333.3)"/><path class="cls-1" d="M463.53,371.19l10.64-37.7.28,0,19.43,34.05-5.29.64-14.73-27.27,3-2.54-8.78,32.31Zm7.22-14.13,12.82-1.56,2,3.82-15.68,1.91Z" transform="translate(-311.05 -333.3)"/><path class="cls-1" d="M511.53,333.3l4.64.42-2.77,30.12,17.54,1.61-.41,4.45-22.18-2Z" transform="translate(-311.05 -333.3)"/><path class="cls-1" d="M565.13,378.75l29.13-26.21.26.13-1.75,39.16L588,389.55l2.1-30.92,3.92-.54L569.3,380.72Zm13.66-8.09,11.67,5.52-.34,4.3-14.27-6.75Z" transform="translate(-311.05 -333.3)"/><path class="cls-1" d="M633.49,378.42a16.16,16.16,0,0,1,3.37,3.58,11.3,11.3,0,0,1,1.76,4,9.59,9.59,0,0,1-.08,4.26,10.93,10.93,0,0,1-2.14,4.19,13.79,13.79,0,0,1-3,2.78,10,10,0,0,1-3.77,1.57,9.76,9.76,0,0,1-4.43-.22,13.58,13.58,0,0,1-5-2.68l-4-3.2-8,10-3.64-2.9,21.63-27.14ZM623,392.34a8.27,8.27,0,0,0,3.08,1.65,5.53,5.53,0,0,0,2.67.07,6.33,6.33,0,0,0,2.17-.94,7.58,7.58,0,0,0,1.6-1.48,6.94,6.94,0,0,0,1.07-1.91,6.71,6.71,0,0,0,.4-2.35,6.14,6.14,0,0,0-.61-2.55,7.15,7.15,0,0,0-2-2.42l-4.2-3.35-8.08,10.14Zm2.8,5.66-2,17.07-4.21-3.35,1.76-17.07Z" transform="translate(-311.05 -333.3)"/><path class="cls-1" d="M656.07,398.55,671,416.2l-3.41,2.87-6-7.11-23.12,19.49-3-3.56,23.11-19.49-5.88-7Z" transform="translate(-311.05 -333.3)"/><path class="cls-1" d="M686.28,454.09a25.92,25.92,0,0,0-.39-4.18,13.53,13.53,0,0,0-1.31-4,7.08,7.08,0,0,0-3.2-3.34,4.18,4.18,0,0,0-3.83.13A3.83,3.83,0,0,0,675.6,445a9.32,9.32,0,0,0-.44,3.36c0,1.26.15,2.57.31,3.93a27.43,27.43,0,0,1,.25,3.44,12.26,12.26,0,0,1-.4,3.43,8.38,8.38,0,0,1-1.58,3.1,10.16,10.16,0,0,1-3.32,2.56,9.52,9.52,0,0,1-5.1,1.12,9.4,9.4,0,0,1-5-1.83,13.18,13.18,0,0,1-4-4.8,18.1,18.1,0,0,1-1.56-4.09,18.93,18.93,0,0,1-.58-4.06,30.09,30.09,0,0,1,.11-3.63l4.19.15a21,21,0,0,0-.16,3.06,16.19,16.19,0,0,0,.4,3.31,12.61,12.61,0,0,0,1.08,3,9.57,9.57,0,0,0,2,2.63,6.1,6.1,0,0,0,2.84,1.49,4.92,4.92,0,0,0,3.42-.59,4.58,4.58,0,0,0,2.17-2.18,8,8,0,0,0,.67-3.12,23.55,23.55,0,0,0-.17-3.61,32.39,32.39,0,0,1-.35-3.58,16.38,16.38,0,0,1,.21-3.58,8.74,8.74,0,0,1,1.3-3.27,7.69,7.69,0,0,1,3-2.57,8.52,8.52,0,0,1,4.84-1,9.2,9.2,0,0,1,4.53,1.72,12.51,12.51,0,0,1,3.57,4.1,19.66,19.66,0,0,1,2,5.63,22.6,22.6,0,0,1,.36,4.93Z" transform="translate(-311.05 -333.3)"/></g><g id="Layer_2" data-name="Layer 2"><path class="cls-2" d="M553.92,498.51c-.77,2.14-2.45,7.37-4.66,14.39L441.11,479.53c-3.64-18.49-4.49-44.35,13.91-57.88,15.28-11.23,27.75-9.71,35.67-6.29l9.42,6.28h0A30.79,30.79,0,0,1,510.47,415c9.49-3.69,21.72-2.89,34.74,6.69C572.12,441.43,557.87,487.55,553.92,498.51Z" transform="translate(-311.05 -333.3)"/><path class="cls-3" d="M476.42,595.92c3,9.15,9,25.11,14.2,25.11h19c3.06,0,6.4-5.57,9.25-12Z" transform="translate(-311.05 -333.3)"/><path class="cls-3" d="M531.59,570.48,462.11,549c2.46,8.06,4.92,16.14,7.14,23.44h0l56.44,17.41Z" transform="translate(-311.05 -333.3)"/><path class="cls-3" d="M537.5,551.08l-82.59-25.49c-3-9.56-5.51-17.74-7.16-22.78l95.51,29.47C541.4,538.32,539.44,544.72,537.5,551.08Z" transform="translate(-311.05 -333.3)"/><path class="cls-4" d="M506.26,465.48" transform="translate(-311.05 -333.3)"/></g><g id="Layer_1" data-name="Layer 1"><path class="cls-5" d="M500.11,601.25" transform="translate(-311.05 -333.3)"/><path class="cls-6" d="M469.56,441.43s29.38-17.39,59.93,0" transform="translate(-311.05 -333.3)"/><path class="cls-6" d="M488.21,433.86a14.11,14.11,0,0,0-11.63-8.49" transform="translate(-311.05 -333.3)"/><path class="cls-6" d="M510.47,433.86a14.09,14.09,0,0,1,11.63-8.49" transform="translate(-311.05 -333.3)"/></g></svg>