<svg xmlns="http://www.w3.org/2000/svg" viewBox="0 0 379.27 359.14"><defs><style>.cls-1,.cls-2{fill:#fff;}.cls-2,.cls-6{stroke:#1a1a1a;}.cls-2,.cls-3,.cls-5,.cls-6{stroke-miterlimit:10;}.cls-3{fill:#14b498;stroke:#000;}.cls-4{fill:#7cc0f3;}.cls-5,.cls-6{fill:none;}.cls-5{stroke:#8b8b7e;stroke-width:3px;}</style></defs><g id="Dental_Arts" data-name="Dental Arts"><path class="cls-1" d="M376.75,585.49l2.26,4.07-30.33,16.87-2.26-4.07Z" transform="translate(-311.05 -333.3)"/><path class="cls-1" d="M358.15,622.47l26.41-24.17,0,0-6.81,30.88-1-1.74,31.05-3.75,0,0-26.42,24.18-3.14-3.44,18.63-17-1.51,1.83-22.48,2.88-.07-.07,4.7-22.32,2.11-.89L361.19,625.8Z" transform="translate(-311.05 -333.3)"/><path class="cls-1" d="M423.28,635a15,15,0,0,1,4.8,4.54,9.48,9.48,0,0,1,1.56,5.32,10.91,10.91,0,0,1-1.87,5.69,13.46,13.46,0,0,1-2.69,3.1,10.23,10.23,0,0,1-3.6,2,9.92,9.92,0,0,1-4.41.28,13.18,13.18,0,0,1-5.07-2l-4.35-2.74-6.78,10.75-3.94-2.48,18.52-29.35Zm-8.89,15a8,8,0,0,0,3.23,1.27,5.52,5.52,0,0,0,2.69-.32,7.06,7.06,0,0,0,2.09-1.24,7.36,7.36,0,0,0,1.39-1.56,8.14,8.14,0,0,0,.88-2,5.61,5.61,0,0,0,.14-2.35,6,6,0,0,0-.92-2.4,7.41,7.41,0,0,0-2.34-2.18L417,636.35l-6.91,11Z" transform="translate(-311.05 -333.3)"/><path class="cls-1" d="M440.76,644.79l4.37,1.61-10.44,28.38,16.53,6.08-1.54,4.19-20.9-7.69Z" transform="translate(-311.05 -333.3)"/><path class="cls-1" d="M461.69,688.33l19.72-33.85.29,0L492,692.33l-5.28-.7-7.45-30.08,3.56-1.71-16.57,29.09Zm10.52-11.88L485,678.14l1,4.2-15.66-2.07Z" transform="translate(-311.05 -333.3)"/><path class="cls-1" d="M537.38,690.1l-29.76-24,1.37.18,3,25.6-4.63.53-4.08-35.53.24,0L533,681l-1.08-.12L528.86,655l4.62-.53,4.09,35.57Z" transform="translate(-311.05 -333.3)"/><path class="cls-1" d="M541,652.33l21.69-7.9,1.53,4.2-8.75,3.18,10.34,28.42-4.37,1.59L551.08,653.4l-8.57,3.12Z" transform="translate(-311.05 -333.3)"/><path class="cls-1" d="M584.58,631.81l3.61-2.93,19,23.51,13.69-11.08,2.81,3.47-17.31,14Z" transform="translate(-311.05 -333.3)"/><path class="cls-1" d="M633,635.81,613.34,601.9l.18-.23,38,9.8-3.22,4.24-29.82-8.44.28-3.95,17,28.82Zm-5.1-15,7.81-10.28,4.14,1.22-9.55,12.57Z" transform="translate(-311.05 -333.3)"/><path class="cls-1" d="M630.1,576.06q2-4.83,5.15-6.77c2.09-1.3,4.5-1.37,7.25-.22a9,9,0,0,1,4,3A8.7,8.7,0,0,1,648,576.5a13.07,13.07,0,0,1-.78,5.37l-2.52-.32a17.43,17.43,0,0,1,3.58-5.32A10.6,10.6,0,0,1,653,573.4a7.58,7.58,0,0,1,5.14.38,9.79,9.79,0,0,1,3.74,2.58,8.28,8.28,0,0,1,1.79,3.56,11.55,11.55,0,0,1,.16,4.07,16.17,16.17,0,0,1-1.14,4.18l-4,9.52-32-13.4Zm14.37,5a5.11,5.11,0,0,0,.15-4.47,5.91,5.91,0,0,0-3-2.68,4.72,4.72,0,0,0-4.37,0,7.34,7.34,0,0,0-2.89,3.68l-1.75,4.16,9.88,4.13Zm14.11,5.69a10.62,10.62,0,0,0,.84-3.5,5.47,5.47,0,0,0-.69-3,4.78,4.78,0,0,0-2.41-2A4.43,4.43,0,0,0,653,578a6.06,6.06,0,0,0-2.59,1.9,12.14,12.14,0,0,0-1.8,3l-2,4.73,9.87,4.14Z" transform="translate(-311.05 -333.3)"/><path class="cls-1" d="M341.34,466.63l-30.29-16.94,4.61-8.25a22,22,0,0,1,5.65-6.9,15.74,15.74,0,0,1,6.49-3.06,17,17,0,0,1,6.59,0,20.51,20.51,0,0,1,6,2.19,17.41,17.41,0,0,1,5.49,4.64,15.86,15.86,0,0,1,2.82,5.87,16.73,16.73,0,0,1,.29,6.43,18.35,18.35,0,0,1-2.18,6.29Zm-1.63-6.24,2.74-4.9a15.47,15.47,0,0,0,1.81-5,12.45,12.45,0,0,0-.11-4.91,11.31,11.31,0,0,0-2.13-4.4,15.27,15.27,0,0,0-9.66-5.35,11.65,11.65,0,0,0-4.95.53,12.61,12.61,0,0,0-4.17,2.4,13.89,13.89,0,0,0-3.07,3.78l-3,5.28Z" transform="translate(-311.05 -333.3)"/><path class="cls-1" d="M339.73,405.88l15.58-16.32,3.23,3.08-12.36,13,7.64,7.29,11-11.57,3.27,3.12-11,11.56,7.75,7.39L377.65,410l3.23,3.08-16,16.81Z" transform="translate(-311.05 -333.3)"/><path class="cls-1" d="M419,388,381.83,379l1.31-.42,13.7,21.83-3.95,2.46L374,372.55l.2-.13,36.93,9.19-1,.36-13.82-22,4-2.46,18.92,30.4Z" transform="translate(-311.05 -333.3)"/><path class="cls-1" d="M421.47,348l21.9-7.29,1.41,4.24L436,347.88l9.55,28.69L441.08,378l-9.55-28.69-8.65,2.88Z" transform="translate(-311.05 -333.3)"/><path class="cls-1" d="M463.53,371.19l10.64-37.7.28,0,19.43,34.05-5.29.64-14.73-27.27,3-2.54-8.78,32.31Zm7.22-14.13,12.82-1.56,2,3.82-15.68,1.91Z" transform="translate(-311.05 -333.3)"/><path class="cls-1" d="M511.53,333.3l4.64.42-2.77,30.12,17.54,1.61-.41,4.45-22.18-2Z" transform="translate(-311.05 -333.3)"/><path class="cls-1" d="M565.13,378.75l29.13-26.21.26.13-1.75,39.16L588,389.55l2.1-30.92,3.92-.54L569.3,380.72Zm13.66-8.09,11.67,5.52-.34,4.3-14.27-6.75Z" transform="translate(-311.05 -333.3)"/><path class="cls-1" d="M633.49,378.42a16.16,16.16,0,0,1,3.37,3.58,11.3,11.3,0,0,1,1.76,4,9.59,9.59,0,0,1-.08,4.26,10.93,10.93,0,0,1-2.14,4.19,13.79,13.79,0,0,1-3,2.78,10,10,0,0,1-3.77,1.57,9.76,9.76,0,0,1-4.43-.22,13.58,13.58,0,0,1-5-2.68l-4-3.2-8,10-3.64-2.9,21.63-27.14ZM623,392.34a8.27,8.27,0,0,0,3.08,1.65,5.53,5.53,0,0,0,2.67.07,6.33,6.33,0,0,0,2.17-.94,7.58,7.58,0,0,0,1.6-1.48,6.94,6.94,0,0,0,1.07-1.91,6.71,6.71,0,0,0,.4-2.35,6.14,6.14,0,0,0-.61-2.55,7.15,7.15,0,0,0-2-2.42l-4.2-3.35-8.08,10.14Zm2.8,5.66-2,17.07-4.21-3.35,1.76-17.07Z" transform="translate(-311.05 -333.3)"/><path class="cls-1" d="M656.07,398.55,671,416.2l-3.41,2.87-6-7.11-23.12,19.49-3-3.56,23.11-19.49-5.88-7Z" transform="translate(-311.05 -333.3)"/><path class="cls-1" d="M686.28,454.09a25.92,25.92,0,0,0-.39-4.18,13.53,13.53,0,0,0-1.31-4,7.08,7.08,0,0,0-3.2-3.34,4.18,4.18,0,0,0-3.83.13A3.83,3.83,0,0,0,675.6,445a9.32,9.32,0,0,0-.44,3.36c0,1.26.15,2.57.31,3.93a27.43,27.43,0,0,1,.25,3.44,12.26,12.26,0,0,1-.4,3.43,8.38,8.38,0,0,1-1.58,3.1,10.16,10.16,0,0,1-3.32,2.56,9.52,9.52,0,0,1-5.1,1.12,9.4,9.4,0,0,1-5-1.83,13.18,13.18,0,0,1-4-4.8,18.1,18.1,0,0,1-1.56-4.09,18.93,18.93,0,0,1-.58-4.06,30.09,30.09,0,0,1,.11-3.63l4.19.15a21,21,0,0,0-.16,3.06,16.19,16.19,0,0,0,.4,3.31,12.61,12.61,0,0,0,1.08,3,9.57,9.57,0,0,0,2,2.63,6.1,6.1,0,0,0,2.84,1.49,4.92,4.92,0,0,0,3.42-.59,4.58,4.58,0,0,0,2.17-2.18,8,8,0,0,0,.67-3.12,23.55,23.55,0,0,0-.17-3.61,32.39,32.39,0,0,1-.35-3.58,16.38,16.38,0,0,1,.21-3.58,8.74,8.74,0,0,1,1.3-3.27,7.69,7.69,0,0,1,3-2.57,8.52,8.52,0,0,1,4.84-1,9.2,9.2,0,0,1,4.53,1.72,12.51,12.51,0,0,1,3.57,4.1,19.66,19.66,0,0,1,2,5.63,22.6,22.6,0,0,1,.36,4.93Z" transform="translate(-311.05 -333.3)"/></g><g id="Layer_2" data-name="Layer 2"><path class="cls-2" d="M553.92,498.51c-.77,2.14-2.45,7.37-4.66,14.39L441.11,479.53c-3.64-18.49-4.49-44.35,13.91-57.88,15.28-11.23,27.75-9.71,35.67-6.29l9.42,6.28h0A30.79,30.79,0,0,1,510.47,415c9.49-3.69,21.72-2.89,34.74,6.69C572.12,441.43,557.87,487.55,553.92,498.51Z" transform="translate(-311.05 -333.3)"/><path class="cls-3" d="M476.42,595.92c3,9.15,9,25.11,14.2,25.11h19c3.06,0,6.4-5.57,9.25-12Z" transform="translate(-311.05 -333.3)"/><path class="cls-3" d="M531.59,570.48,462.11,549c2.46,8.06,4.92,16.14,7.14,23.44h0l56.44,17.41Z" transform="translate(-311.05 -333.3)"/><path class="cls-3" d="M537.5,551.08l-82.59-25.49c-3-9.56-5.51-17.74-7.16-22.78l95.51,29.47C541.4,538.32,539.44,544.72,537.5,551.08Z" transform="translate(-311.05 -333.3)"/><path class="cls-4" d="M506.26,465.48" transform="translate(-311.05 -333.3)"/></g><g id="Layer_1" data-name="Layer 1"><path class="cls-5" d="M500.11,601.25" transform="translate(-311.05 -333.3)"/><path class="cls-6" d="M469.56,441.43s29.38-17.39,59.93,0" transform="translate(-311.05 -333.3)"/><path class="cls-6" d="M488.21,433.86a14.11,14.11,0,0,0-11.63-8.49" transform="translate(-311.05 -333.3)"/><path class="cls-6" d="M510.47,433.86a14.09,14.09,0,0,1,11.63-8.49" transform="translate(-311.05 -333.3)"/></g></svg>