<svg xmlns="http://www.w3.org/2000/svg" viewBox="0 0 123.22 209.17"><defs><style>.cls-1{fill:#fff;}.cls-1,.cls-5{stroke:#1a1a1a;}.cls-1,.cls-2,.cls-4,.cls-5{stroke-miterlimit:10;}.cls-2{fill:#14b498;stroke:#000;}.cls-3{fill:#7cc0f3;}.cls-4,.cls-5{fill:none;}.cls-4{stroke:#8b8b7e;stroke-width:3px;}</style></defs><g id="Layer_2" data-name="Layer 2"><path class="cls-1" d="M553.92,498.51c-.77,2.14-2.45,7.37-4.66,14.39L441.11,479.53c-3.64-18.49-4.49-44.35,13.91-57.88,15.28-11.23,27.75-9.71,35.67-6.29l9.42,6.28h0A30.79,30.79,0,0,1,510.47,415c9.49-3.69,21.72-2.89,34.74,6.69C572.12,441.43,557.87,487.55,553.92,498.51Z" transform="translate(-438.51 -412.36)"/><path class="cls-2" d="M476.42,595.92c3,9.15,9,25.11,14.2,25.11h19c3.06,0,6.4-5.57,9.25-12Z" transform="translate(-438.51 -412.36)"/><path class="cls-2" d="M531.59,570.48,462.11,549c2.46,8.06,4.92,16.14,7.14,23.44h0l56.44,17.41Z" transform="translate(-438.51 -412.36)"/><path class="cls-2" d="M537.5,551.08l-82.59-25.49c-3-9.56-5.51-17.74-7.16-22.78l95.51,29.47C541.4,538.32,539.44,544.72,537.5,551.08Z" transform="translate(-438.51 -412.36)"/><path class="cls-3" d="M506.26,465.48" transform="translate(-438.51 -412.36)"/></g><g id="Layer_1" data-name="Layer 1"><path class="cls-4" d="M500.11,601.25" transform="translate(-438.51 -412.36)"/><path class="cls-5" d="M469.56,441.43s29.38-17.39,59.93,0" transform="translate(-438.51 -412.36)"/><path class="cls-5" d="M488.21,433.86a14.11,14.11,0,0,0-11.63-8.49" transform="translate(-438.51 -412.36)"/><path class="cls-5" d="M510.47,433.86a14.09,14.09,0,0,1,11.63-8.49" transform="translate(-438.51 -412.36)"/></g></svg>